<?xml version="1.0" standalone="no"?>
<!DOCTYPE svg PUBLIC "-//W3C//DTD SVG 20010904//EN"
 "http://www.w3.org/TR/2001/REC-SVG-20010904/DTD/svg10.dtd">
<svg version="1.0" xmlns="http://www.w3.org/2000/svg"
 width="367.000000pt" height="367.000000pt" viewBox="0 0 367.000000 367.000000"
 preserveAspectRatio="xMidYMid meet">
<metadata>
Created by potrace 1.11, written by Peter Selinger 2001-2013
</metadata>
<g transform="translate(0.000000,367.000000) scale(0.100000,-0.100000)"
fill="#000000" stroke="none">
<path d="M1918 2772 l-38 -3 -31 -98 c-17 -53 -34 -103 -38 -110 -4 -7 -35
-14 -67 -16 -70 -5 -180 -18 -256 -31 -16 -2 -43 -6 -60 -9 -18 -3 -45 -8 -60
-11 -17 -3 -28 -1 -28 5 0 6 4 11 10 11 5 0 7 7 4 15 -4 8 -1 15 6 15 6 0 9 4
6 8 -3 5 4 39 15 76 16 54 18 73 9 100 -10 30 -13 32 -50 30 -45 -2 -163 -13
-200 -19 -106 -15 -108 -16 -115 -43 l-7 -27 -9 24 c-8 20 -13 22 -47 16 -104
-18 -423 -122 -459 -149 -1 -1 -30 -87 -63 -191 -40 -122 -57 -191 -50 -193 7
-3 5 -9 -5 -16 -10 -7 -46 -104 -85 -225 l-68 -212 25 -10 c32 -12 73 -12 73
1 0 6 9 10 20 10 11 0 20 5 20 11 0 5 4 8 9 5 5 -4 11 -3 13 1 5 12 104 63
122 63 9 0 16 5 16 10 0 6 7 10 15 10 8 0 29 9 47 19 17 11 35 18 40 15 4 -3
8 0 8 5 0 6 9 11 19 11 11 0 23 5 26 10 3 6 10 10 16 10 5 0 9 -4 9 -10 0 -5
-6 -10 -12 -10 -23 0 -499 -243 -507 -259 -8 -14 -43 -123 -161 -494 l-28 -88
26 -10 c15 -5 35 -13 44 -19 13 -7 16 -6 12 4 -8 21 14 30 34 14 15 -11 15
-11 5 3 -11 13 -6 19 30 40 23 13 45 23 50 21 4 -1 7 5 7 13 0 8 11 17 25 21
14 3 25 10 25 15 0 5 5 9 11 9 5 0 8 -4 4 -9 -3 -5 -1 -12 4 -15 4 -3 8 3 7
14 0 11 3 19 7 19 4 0 15 7 23 16 9 8 20 13 25 9 5 -3 8 -2 7 3 -2 4 0 9 5 11
4 1 16 11 28 23 11 11 27 18 34 15 8 -3 17 0 21 6 5 7 2 8 -7 4 -8 -4 -3 1 11
12 14 12 26 19 28 17 2 -2 15 7 29 21 13 13 30 24 37 24 8 0 17 7 20 16 4 9
13 14 22 10 8 -3 12 -2 9 3 -3 5 4 12 15 16 11 3 20 11 20 16 0 5 6 9 14 9 8
0 16 5 18 12 3 7 11 9 24 3 26 -11 47 -15 39 -7 -4 4 -12 7 -17 7 -6 0 -13 6
-16 14 -3 10 0 12 14 7 10 -4 15 -4 12 0 -7 6 33 44 47 44 3 0 13 7 22 15 8 8
19 12 25 9 6 -4 8 -2 4 4 -6 10 62 59 76 54 5 -1 7 1 5 5 -1 5 1 8 5 8 3 0 21
17 39 38 19 22 38 36 46 33 8 -3 12 -2 9 2 -2 4 -1 14 5 22 7 12 9 11 9 -5 0
-34 56 -51 102 -31 9 4 22 4 29 0 7 -4 9 -3 6 3 -4 6 9 15 31 21 20 6 74 24
119 40 61 22 84 27 94 18 9 -8 10 -8 5 2 -5 8 5 18 31 29 21 9 44 16 51 16 6
0 12 3 12 6 0 4 16 15 35 25 19 11 35 23 35 29 0 5 7 7 14 4 10 -4 13 -1 10 7
-3 7 2 16 10 19 12 5 13 1 7 -16 -8 -21 -20 -31 -54 -41 -16 -5 -17 -8 -4 -26
13 -19 11 -30 -19 -112 -19 -51 -30 -94 -25 -97 10 -7 -37 -131 -49 -131 -5 0
-19 -17 -31 -37 -13 -21 -51 -81 -85 -133 -97 -151 -96 -146 -27 -111 32 16
68 31 78 33 11 1 23 7 26 11 4 5 18 10 32 10 14 1 24 5 22 8 -2 3 21 14 52 24
52 18 118 22 168 11 11 -2 24 -5 28 -5 5 -1 5 -5 2 -11 -3 -6 1 -7 9 -4 9 3
16 1 16 -5 0 -6 3 -10 8 -9 14 3 42 -14 36 -23 -3 -5 0 -8 8 -7 7 2 12 -3 10
-10 -1 -8 2 -11 7 -7 6 3 7 13 4 22 -5 13 -2 15 12 10 15 -6 16 -5 5 8 -9 11
-9 15 -1 15 7 0 9 5 6 10 -4 6 -1 17 5 26 10 11 16 12 29 2 9 -7 12 -8 8 -3
-7 8 62 50 69 42 2 -2 14 -31 27 -66 l24 -63 21 50 21 49 61 -2 c34 0 64 3 67
8 4 6 0 7 -8 2 -11 -6 -12 -5 -2 5 10 11 15 11 29 -1 10 -8 15 -9 11 -2 -4 6
-3 14 3 18 5 3 10 2 10 -4 0 -6 6 -8 13 -6 6 2 29 7 50 10 44 6 67 -2 46 -17
-10 -6 -7 -7 9 -3 21 6 23 4 18 -13 -4 -12 -2 -24 5 -28 8 -4 9 -3 5 5 -12 19
13 42 33 32 9 -5 26 -9 36 -8 15 2 20 -4 19 -21 -1 -12 1 -20 5 -17 3 4 6 12
6 18 0 7 17 13 38 15 28 2 43 -2 53 -15 13 -16 13 -16 8 0 -3 9 -1 17 5 17 6
0 11 -6 11 -12 0 -9 3 -10 8 -2 10 16 115 27 106 11 -5 -9 -4 -9 5 -1 13 12
71 6 71 -7 0 -5 5 -9 11 -9 5 0 7 5 4 10 -4 6 8 10 29 10 19 0 37 -6 39 -12 4
-10 6 -10 6 0 1 6 8 12 17 12 9 0 12 -5 8 -13 -6 -9 -4 -9 7 -1 17 13 99 15
99 3 0 -5 -5 -9 -12 -9 -6 0 -8 -3 -5 -6 4 -4 13 -1 22 6 8 7 15 8 15 3 0 -5
9 -9 19 -9 11 0 17 5 14 10 -4 5 3 7 15 4 12 -4 25 -2 28 3 3 5 14 9 24 9 11
0 35 9 55 20 41 23 51 25 39 7 -5 -7 0 -3 11 10 26 28 35 29 35 2 0 -11 4 -18
9 -15 5 3 12 -6 15 -19 4 -14 10 -23 15 -21 12 8 43 -29 34 -39 -5 -4 -3 -5 4
-2 6 4 18 1 26 -8 19 -18 30 -6 47 52 7 23 17 40 22 37 4 -3 7 5 5 17 -2 12 4
44 15 71 l18 48 -23 0 c-14 0 -18 3 -10 8 6 4 17 20 23 36 9 25 12 27 28 15
14 -11 13 -9 -2 8 -16 20 -17 23 -3 28 9 4 13 14 9 27 -3 14 -1 19 6 14 8 -5
10 -2 6 8 -3 9 -2 16 3 16 5 0 10 6 10 14 0 22 30 80 57 109 47 51 47 56 -1
100 -25 22 -56 61 -70 85 l-26 44 -156 -7 -156 -6 25 23 c36 33 70 104 70 144
0 20 5 34 13 34 8 0 8 3 -2 9 -8 5 -12 18 -8 30 3 12 1 21 -4 21 -5 0 -9 7 -9
17 0 30 -61 112 -107 142 -44 30 -69 37 -143 45 -37 4 -136 -18 -157 -36 -7
-6 -17 -8 -20 -4 -4 4 -3 10 2 14 6 4 11 13 13 20 3 16 -19 82 -28 82 -3 0
-37 7 -75 15 -39 8 -126 18 -195 21 -69 4 -126 7 -126 8 -1 0 -5 12 -9 26 -7
23 -7 24 11 10 10 -8 16 -11 12 -6 -4 5 -2 18 4 30 7 11 13 23 13 26 9 48 18
69 28 64 9 -5 9 -3 0 6 -7 8 -9 19 -4 29 5 9 3 29 -5 49 -15 35 1 32 -184 35
-47 1 -88 6 -91 11 -7 8 -169 14 -241 8z m-1005 -449 c-11 -31 -15 -35 -23
-22 -11 16 -1 39 16 39 8 0 11 -6 7 -17z m885 -148 c-2 -1 -18 -5 -35 -8 -23
-5 -33 -3 -33 6 0 9 11 12 36 9 19 -2 34 -5 32 -7z m82 11 c0 -2 -16 -6 -35
-8 -19 -2 -35 0 -35 4 0 4 16 8 35 8 19 0 35 -2 35 -4z m1141 -69 c-10 -9 -11
-8 -5 6 3 10 9 15 12 12 3 -3 0 -11 -7 -18z m-329 -165 c-3 -9 -1 -13 5 -9 5
3 20 -5 32 -19 l22 -26 -43 3 c-34 3 -43 0 -46 -14 -2 -9 -8 -15 -13 -12 -5 3
-6 -2 -2 -11 5 -14 3 -16 -12 -11 -14 6 -16 5 -7 -6 9 -10 3 -37 -22 -111 -19
-54 -38 -101 -42 -104 -4 -4 -4 1 -1 11 5 12 1 17 -14 17 -15 0 -19 5 -14 19
5 17 0 19 -45 18 -54 0 -73 9 -50 23 8 6 12 10 8 10 -4 0 -2 13 3 30 6 16 14
28 17 26 4 -2 8 12 9 31 2 32 0 35 -23 30 -13 -2 -27 0 -30 4 -3 5 3 10 13 10
27 3 47 6 56 9 4 1 10 3 15 4 70 19 96 32 134 70 40 40 64 44 50 8z m-529 -27
c-3 -9 -8 -14 -10 -11 -3 3 -2 9 2 15 9 16 15 13 8 -4z m771 -1 c8 -21 8 -24
-4 -24 -5 0 -11 8 -11 18 -1 16 -2 16 -6 0 -2 -10 -12 -18 -20 -18 -14 0 -14
3 2 20 22 24 31 25 39 4z m-700 -65 c3 -3 -6 -5 -19 -5 -14 0 -25 4 -25 8 0 8
36 6 44 -3z"/>
<path d="M2629 1893 c-13 -16 -12 -17 4 -4 16 13 21 21 13 21 -2 0 -10 -8 -17
-17z"/>
<path d="M2584 1868 l-19 -23 23 19 c12 11 22 21 22 23 0 8 -8 2 -26 -19z"/>
<path d="M2550 1869 c0 -5 5 -7 10 -4 6 3 10 8 10 11 0 2 -4 4 -10 4 -5 0 -10
-5 -10 -11z"/>
<path d="M2493 1738 c-2 -18 0 -20 7 -8 12 18 13 30 2 30 -4 0 -9 -10 -9 -22z"/>
<path d="M1410 2629 c0 -5 5 -7 10 -4 6 3 10 8 10 11 0 2 -4 4 -10 4 -5 0 -10
-5 -10 -11z"/>
<path d="M2436 2611 c-3 -5 1 -14 8 -20 10 -9 16 -9 21 -1 4 6 1 9 -7 8 -7 -2
-12 3 -10 10 2 14 -4 16 -12 3z"/>
<path d="M3250 2009 c0 -5 5 -7 10 -4 6 3 10 8 10 11 0 2 -4 4 -10 4 -5 0 -10
-5 -10 -11z"/>
<path d="M1450 1726 c0 -2 8 -10 18 -17 15 -13 16 -12 3 4 -13 16 -21 21 -21
13z"/>
<path d="M1419 1703 c-13 -16 -12 -17 4 -4 16 13 21 21 13 21 -2 0 -10 -8 -17
-17z"/>
<path d="M1505 1710 c-3 -6 1 -7 9 -4 18 7 21 14 7 14 -6 0 -13 -4 -16 -10z"/>
<path d="M1300 1670 c-9 -6 -10 -10 -3 -10 6 0 15 5 18 10 8 12 4 12 -15 0z"/>
<path d="M1374 1668 c-4 -7 -4 -10 1 -6 4 4 15 2 24 -5 14 -11 14 -10 2 6 -16
20 -18 21 -27 5z"/>
<path d="M1429 1667 c6 -8 7 -18 3 -22 -4 -5 -1 -5 6 -1 10 6 10 11 1 22 -6 8
-14 14 -16 14 -3 0 0 -6 6 -13z"/>
<path d="M1255 1650 c-3 -5 -1 -10 4 -10 6 0 11 5 11 10 0 6 -2 10 -4 10 -3 0
-8 -4 -11 -10z"/>
<path d="M1353 1645 c0 -8 4 -12 9 -9 5 3 6 10 3 15 -9 13 -12 11 -12 -6z"/>
<path d="M1200 1635 c0 -2 6 -8 13 -14 10 -8 14 -7 14 2 0 8 -6 14 -14 14 -7
0 -13 -1 -13 -2z"/>
<path d="M3526 1629 c4 -8 30 -6 38 2 3 3 -5 5 -19 5 -13 0 -22 -3 -19 -7z"/>
<path d="M1153 1606 c1 -6 -4 -10 -10 -8 -7 1 -13 -2 -13 -8 0 -16 15 -12 33
8 14 15 14 19 3 19 -8 0 -14 -5 -13 -11z"/>
<path d="M1270 1609 c0 -5 5 -7 10 -4 6 3 10 8 10 11 0 2 -4 4 -10 4 -5 0 -10
-5 -10 -11z"/>
<path d="M975 1600 c-4 -6 -10 -8 -15 -5 -5 3 -11 1 -14 -4 -8 -13 22 -7 36 7
7 7 9 12 6 12 -4 0 -10 -5 -13 -10z"/>
<path d="M1170 1569 c0 -5 5 -7 10 -4 6 3 10 8 10 11 0 2 -4 4 -10 4 -5 0 -10
-5 -10 -11z"/>
<path d="M831 1497 c-13 -21 -12 -21 5 -5 10 10 16 20 13 22 -3 3 -11 -5 -18
-17z"/>
<path d="M3484 1512 c4 -3 14 -7 22 -8 9 -1 13 0 10 4 -4 3 -14 7 -22 8 -9 1
-13 0 -10 -4z"/>
<path d="M757 1443 c-10 -9 -9 -23 1 -23 5 0 9 7 9 15 0 17 -1 18 -10 8z"/>
<path d="M3436 1431 c-3 -5 2 -15 12 -22 15 -12 16 -12 5 2 -7 9 -10 19 -6 22
3 4 4 7 0 7 -3 0 -8 -4 -11 -9z"/>
<path d="M790 1409 c0 -5 5 -7 10 -4 6 3 10 8 10 11 0 2 -4 4 -10 4 -5 0 -10
-5 -10 -11z"/>
<path d="M3475 1410 c3 -5 8 -10 11 -10 2 0 4 5 4 10 0 6 -5 10 -11 10 -5 0
-7 -4 -4 -10z"/>
<path d="M564 1312 c4 -3 14 -7 22 -8 9 -1 13 0 10 4 -4 3 -14 7 -22 8 -9 1
-13 0 -10 -4z"/>
<path d="M3425 1310 c-3 -6 1 -7 9 -4 18 7 21 14 7 14 -6 0 -13 -4 -16 -10z"/>
<path d="M516 1291 c-3 -5 2 -15 12 -22 15 -12 16 -12 5 2 -7 9 -10 19 -6 22
3 4 4 7 0 7 -3 0 -8 -4 -11 -9z"/>
<path d="M3450 1291 c0 -6 4 -13 10 -16 6 -3 7 1 4 9 -7 18 -14 21 -14 7z"/>
<path d="M2225 1249 c-3 -4 2 -6 10 -5 21 3 28 13 10 13 -9 0 -18 -4 -20 -8z"/>
<path d="M3425 1250 c-3 -6 1 -7 9 -4 18 7 21 14 7 14 -6 0 -13 -4 -16 -10z"/>
<path d="M2160 1230 c-12 -7 -10 -9 7 -7 12 0 19 5 17 9 -6 10 -6 10 -24 -2z"/>
<path d="M2276 1232 c-3 -5 1 -9 9 -9 8 0 12 4 9 9 -3 4 -7 8 -9 8 -2 0 -6 -4
-9 -8z"/>
<path d="M1879 1228 c-5 -18 -6 -38 -1 -34 7 8 12 36 6 36 -2 0 -4 -1 -5 -2z"/>
<path d="M2215 1221 c-3 -5 -2 -12 3 -15 5 -3 9 1 9 9 0 17 -3 19 -12 6z"/>
<path d="M2795 1219 c-4 -6 -5 -12 -2 -15 2 -3 7 2 10 11 7 17 1 20 -8 4z"/>
<path d="M2913 1217 c0 -8 6 -14 14 -14 9 0 10 4 2 14 -6 7 -12 13 -14 13 -1
0 -2 -6 -2 -13z"/>
<path d="M3393 1216 c0 -15 22 -15 34 0 4 5 4 6 -1 2 -5 -4 -14 -3 -21 2 -8 7
-12 5 -12 -4z"/>
<path d="M1630 1206 c7 -7 13 -7 20 0 6 6 3 10 -10 10 -13 0 -16 -4 -10 -10z"/>
<path d="M1910 1209 c0 -5 5 -7 10 -4 6 3 10 8 10 11 0 2 -4 4 -10 4 -5 0 -10
-5 -10 -11z"/>
<path d="M2466 1212 c-3 -5 1 -9 9 -9 8 0 12 4 9 9 -3 4 -7 8 -9 8 -2 0 -6 -4
-9 -8z"/>
<path d="M2509 1207 c6 -8 7 -18 3 -22 -4 -5 -1 -5 6 -1 10 6 10 11 1 22 -6 8
-14 14 -16 14 -3 0 0 -6 6 -13z"/>
<path d="M3196 1208 c3 -4 11 -5 19 -1 21 7 19 12 -4 10 -11 0 -18 -5 -15 -9z"/>
<path d="M1579 1208 c-5 -9 -5 -48 -1 -43 6 6 11 45 5 45 -2 0 -4 -1 -4 -2z"/>
<path d="M2055 1200 c-4 -6 -10 -8 -14 -6 -4 3 -8 -1 -8 -9 0 -13 4 -12 19 2
18 16 22 23 14 23 -3 0 -8 -5 -11 -10z"/>
<path d="M2853 1197 c0 -8 6 -14 14 -14 9 0 10 4 2 14 -6 7 -12 13 -14 13 -1
0 -2 -6 -2 -13z"/>
<path d="M1540 1190 c-9 -6 -10 -10 -3 -10 6 0 15 5 18 10 8 12 4 12 -15 0z"/>
<path d="M2130 1189 c0 -5 5 -7 10 -4 6 3 10 8 10 11 0 2 -4 4 -10 4 -5 0 -10
-5 -10 -11z"/>
<path d="M2646 1188 c3 -5 10 -6 15 -3 13 9 11 12 -6 12 -8 0 -12 -4 -9 -9z"/>
<path d="M2710 1191 c0 -6 4 -13 10 -16 6 -3 7 1 4 9 -7 18 -14 21 -14 7z"/>
<path d="M3136 1188 c3 -5 10 -6 15 -3 13 9 11 12 -6 12 -8 0 -12 -4 -9 -9z"/>
<path d="M3095 1181 c-3 -5 -2 -12 3 -15 5 -3 9 1 9 9 0 17 -3 19 -12 6z"/>
<path d="M3370 1129 c0 -5 5 -7 10 -4 6 3 10 8 10 11 0 2 -4 4 -10 4 -5 0 -10
-5 -10 -11z"/>
<path d="M1355 1121 c-3 -5 -2 -12 3 -15 5 -3 9 1 9 9 0 17 -3 19 -12 6z"/>
<path d="M341 1106 c-9 -11 -9 -16 1 -22 7 -4 10 -4 6 1 -4 4 -3 14 3 22 6 7
9 13 6 13 -2 0 -10 -6 -16 -14z"/>
<path d="M246 1069 c4 -8 30 -6 38 2 3 3 -5 5 -19 5 -13 0 -22 -3 -19 -7z"/>
<path d="M1350 1070 c0 -5 5 -10 11 -10 5 0 7 5 4 10 -3 6 -8 10 -11 10 -2 0
-4 -4 -4 -10z"/>
<path d="M110 996 c0 -2 7 -7 16 -10 8 -3 12 -2 9 4 -6 10 -25 14 -25 6z"/>
</g>
</svg>
